<svg width="512" height="512" viewBox="0 0 512 512" fill="none" xmlns="http://www.w3.org/2000/svg">
<g clip-path="url(#clip0_94_1985)">
<path fill-rule="evenodd" clip-rule="evenodd" d="M256 0C397.385 0 512 114.615 512 256C512 397.385 397.385 512 256 512C114.615 512 0 397.385 0 256C0 114.615 114.615 0 256 0Z" fill="url(#paint0_radial_94_1985)"/>
<path d="M162.692 197.709C214.225 147.43 297.776 147.43 349.309 197.709L355.511 203.76C358.087 206.274 358.087 210.35 355.511 212.864L334.295 233.563C333.006 234.82 330.918 234.82 329.629 233.563L321.094 225.236C285.144 190.161 226.856 190.161 190.906 225.236L181.766 234.154C180.478 235.411 178.389 235.411 177.1 234.154L155.884 213.454C153.308 210.94 153.308 206.864 155.884 204.35L162.692 197.709ZM393.185 240.518L412.068 258.94C414.644 261.454 414.644 265.53 412.068 268.044L326.926 351.115C324.349 353.628 320.172 353.628 317.595 351.115C317.595 351.115 317.595 351.115 317.595 351.115L257.167 292.157C256.523 291.529 255.478 291.529 254.834 292.157C254.834 292.157 254.834 292.157 254.834 292.157L194.407 351.115C191.831 353.628 187.653 353.629 185.076 351.115C185.076 351.115 185.076 351.115 185.076 351.115L99.9325 268.043C97.3558 265.529 97.3558 261.453 99.9325 258.939L118.815 240.517C121.391 238.003 125.569 238.003 128.146 240.517L188.575 299.475C189.219 300.103 190.263 300.103 190.907 299.475C190.907 299.475 190.907 299.475 190.907 299.475L251.334 240.517C253.91 238.003 258.088 238.003 260.664 240.516C260.664 240.516 260.664 240.517 260.664 240.516L321.094 299.475C321.738 300.103 322.782 300.103 323.426 299.475L383.854 240.518C386.431 238.004 390.609 238.004 393.185 240.518Z" fill="white"/>
</g>
<defs>
<radialGradient id="paint0_radial_94_1985" cx="0" cy="0" r="1" gradientUnits="userSpaceOnUse" gradientTransform="translate(0 131072) scale(262144)">
<stop stop-color="#5D9DF6"/>
<stop offset="1" stop-color="#006FFF"/>
</radialGradient>
<clipPath id="clip0_94_1985">
<rect width="512" height="512" fill="white"/>
</clipPath>
</defs>
</svg>
