<svg width="24" height="24" viewBox="0 0 24 24" fill="none" xmlns="http://www.w3.org/2000/svg">
<path d="M12.004 7.1e-05C10.359 7.1e-05 8.99806 1.35117 8.99806 2.99617V3.16609C8.99704 3.42179 8.84625 3.63585 8.61525 3.74226C8.58299 3.7485 8.55105 3.75632 8.51955 3.7657C8.2737 3.87421 7.99486 3.8208 7.80275 3.63289L7.75197 3.58016C6.59057 2.41746 4.66987 2.42146 3.50587 3.58016C2.34117 4.74356 2.34117 6.66085 3.50587 7.82425L3.5586 7.87699C3.74652 8.0691 3.7921 8.34598 3.6836 8.59183C3.6758 8.61178 3.66863 8.63197 3.66212 8.65238C3.56893 8.90576 3.33437 9.0738 3.06446 9.08011H2.9961C1.3511 9.08011 0 10.4312 0 12.0762C0 13.7212 1.3511 15.0821 2.9961 15.0821H3.16602C3.42777 15.0831 3.6547 15.2321 3.75782 15.4727C3.76039 15.4773 3.76299 15.4819 3.76563 15.4864C3.87413 15.7322 3.82073 16.0111 3.63282 16.2032L3.58009 16.2559C2.41539 17.4193 2.41539 19.3366 3.58009 20.5C4.74349 21.6647 6.66079 21.6647 7.82419 20.5L7.87692 20.4473C8.06903 20.2594 8.34591 20.206 8.59176 20.3145C8.61168 20.323 8.63188 20.3308 8.65231 20.3379C8.90569 20.4311 9.07373 20.6657 9.08004 20.9356V21.002C9.08004 22.647 10.4311 23.9981 12.0761 23.9981C13.7211 23.9981 15.082 22.647 15.082 21.002V20.8321C15.083 20.5703 15.2321 20.3434 15.4727 20.2403C15.4772 20.2383 15.4818 20.2364 15.4863 20.2344C15.7322 20.1259 16.011 20.1793 16.2031 20.3672L16.2559 20.418C17.4193 21.5827 19.3366 21.5827 20.5 20.418C21.6647 19.2546 21.6647 17.3373 20.5 16.1739L20.4472 16.1211C20.2593 15.9291 20.2059 15.6522 20.3144 15.4063C20.3171 15.4011 20.3197 15.3959 20.3222 15.3907C20.4253 15.1501 20.6503 15.0011 20.9121 15.0001H21.0019C22.6469 15.0001 23.998 13.649 23.998 12.004C23.998 10.359 22.6469 8.99808 21.0019 8.99808H20.832C20.5763 8.99707 20.3622 8.84627 20.2558 8.61527C20.2502 8.58303 20.2431 8.55109 20.2343 8.51956C20.1258 8.27371 20.1792 7.99487 20.3672 7.80276L20.4179 7.75198V7.74417C21.5745 6.58217 21.5745 4.66787 20.4179 3.50587C19.2545 2.34117 17.3372 2.34117 16.1738 3.50587L16.1211 3.55861C15.929 3.74653 15.6521 3.79211 15.4063 3.68361C15.4011 3.68357 15.3958 3.68357 15.3906 3.68361C15.1521 3.58139 15.0036 3.3527 15 3.09376V2.9961C15 1.3511 13.649 7.1e-05 12.004 7.1e-05ZM12.004 2.00007C12.5681 2.00007 13.0001 2.43204 13.0001 2.99616V3.09382C13.0043 4.14362 13.639 5.09642 14.6017 5.51372C15.5884 5.94568 16.7474 5.73603 17.5177 4.98247C17.5203 4.97988 17.5229 4.97727 17.5255 4.97466L17.584 4.91606C17.9831 4.51661 18.601 4.51661 19 4.91606C19.3995 5.31507 19.3995 5.93506 19 6.33406L18.9415 6.39266C18.9388 6.39525 18.9362 6.39785 18.9337 6.40047C18.2191 7.13097 17.9914 8.21107 18.338 9.16217C18.3498 9.24262 18.3715 9.32133 18.4024 9.39655C18.8174 10.3649 19.7708 10.9939 20.8243 10.9981C20.8269 10.9982 20.8295 10.9982 20.8321 10.9981H21.002C21.5661 10.9981 21.9981 11.4399 21.9981 12.004C21.9981 12.5682 21.5662 13.0001 21.002 13.0001H20.9122C20.9102 13.0001 20.9083 13.0001 20.9063 13.0001C19.8528 13.0043 18.8994 13.6412 18.4844 14.6095C18.0566 15.5947 18.2639 16.7492 19.0156 17.5177C19.0182 17.5204 19.0208 17.523 19.0234 17.5255L19.082 17.5841C19.4815 17.9831 19.4815 18.6011 19.082 19.0001C18.683 19.3996 18.063 19.3996 17.664 19.0001L17.6054 18.9415C17.6029 18.9389 17.6003 18.9363 17.5976 18.9337C16.8273 18.1802 15.6683 17.9705 14.6816 18.4025C13.7133 18.8175 13.0842 19.7709 13.08 20.8244C13.08 20.827 13.08 20.8296 13.08 20.8322V21.0021C13.08 21.5662 12.6403 21.9982 12.0761 21.9982C11.512 21.9982 11.0801 21.5662 11.0801 21.0021V20.9123C11.0801 20.9116 11.0801 20.9109 11.0801 20.9103C11.0801 20.9096 11.0801 20.9089 11.0801 20.9083C11.0801 20.9076 11.0801 20.9069 11.0801 20.9063C11.0801 20.9056 11.0801 20.9049 11.0801 20.9043C11.0801 20.9036 11.0801 20.9029 11.0801 20.9023C11.0801 20.9016 11.0801 20.9009 11.0801 20.9003C11.0801 20.8996 11.0801 20.8989 11.0801 20.8983C11.0801 20.8976 11.0801 20.8969 11.0801 20.8963C11.0801 20.8956 11.0801 20.8949 11.0801 20.8943C11.0801 20.8936 11.0801 20.8929 11.0801 20.8923C11.0801 20.8916 11.0801 20.8909 11.0801 20.8903C11.0801 20.8896 11.0801 20.8889 11.0801 20.8883C11.0801 20.8876 11.0801 20.8869 11.0801 20.8863C11.0801 20.8856 11.0801 20.8849 11.0801 20.8843C11.0801 20.8836 11.0801 20.8829 11.0801 20.8823C11.055 19.8117 10.3649 18.8767 9.36715 18.4924C8.38709 18.0779 7.24295 18.27 6.48045 19.0158C6.47849 19.0184 6.47653 19.021 6.47459 19.0236L6.41405 19.0822C6.01504 19.4816 5.39705 19.4816 4.99805 19.0822C4.5986 18.6832 4.5986 18.0632 4.99805 17.6642L5.05664 17.6056C5.05926 17.603 5.06186 17.6004 5.06445 17.5978C5.81801 16.8274 6.02766 15.6685 5.5957 14.6818C5.18068 13.7135 4.2273 13.0844 3.1738 13.0802C3.1712 13.0802 3.16859 13.0802 3.16599 13.0802H2.99607C2.43195 13.0802 1.99998 12.6404 1.99998 12.0763C1.99998 11.5122 2.43195 11.0802 2.99607 11.0802H3.09373C3.10089 11.0803 3.10805 11.0803 3.11521 11.0802C4.18651 11.0552 5.12351 10.365 5.50781 9.36732C5.9223 8.38726 5.72825 7.24312 4.98242 6.48062C4.97983 6.47865 4.97722 6.4767 4.97461 6.47476L4.91602 6.41421C4.51657 6.0152 4.51657 5.39721 4.91602 4.99821C5.31503 4.59876 5.93502 4.59876 6.33402 4.99821L6.39261 5.0568C6.3952 5.05942 6.3978 5.06202 6.40042 5.06461C7.13092 5.77917 8.21102 6.00687 9.16212 5.66031C9.24258 5.64844 9.32128 5.6268 9.3965 5.59586C10.3648 5.18085 10.9939 4.22746 10.9981 3.17396C10.9981 3.17331 10.9981 3.17266 10.9981 3.17201C10.9981 3.17136 10.9981 3.17071 10.9981 3.17006C10.9981 3.16941 10.9981 3.16876 10.9981 3.16811C10.9981 3.16746 10.9981 3.16681 10.9981 3.16616V2.99623C10.9981 2.43211 11.4398 2.00007 12.004 2.00007ZM12.003 8.00207C9.80571 8.00207 8.00201 9.80577 8.00201 12.0031C8.00201 14.2004 9.80571 15.9967 12.003 15.9967C14.2003 15.9967 15.9966 14.2004 15.9966 12.0031C15.9966 9.80577 14.2003 8.00207 12.003 8.00207ZM12.003 10.0026C13.1194 10.0026 14.0035 10.8867 14.0035 12.0031C14.0035 13.1195 13.1194 14.0036 12.003 14.0036C10.8866 14.0036 10.0025 13.1195 10.0025 12.0031C10.0025 10.8867 10.8866 10.0026 12.003 10.0026Z" fill="#DFE4ED"/>
</svg>
