<svg width="93" height="93" viewBox="0 0 93 93" fill="none" xmlns="http://www.w3.org/2000/svg">
<g clip-path="url(#clip0_94_1989)">
<path d="M92.755 63.804C92.755 63.804 92.755 73.444 91.727 77.584C90.699 81.771 88.742 84.644 86.637 86.786C84.483 88.928 81.644 90.876 77.337 91.898C72.981 92.921 63.583 92.872 63.583 92.872H29.417C29.417 92.872 19.775 92.872 15.614 91.85C11.454 90.779 8.51701 88.88 6.36401 86.737C4.20901 84.595 2.25201 81.771 1.27301 77.437C0.245014 73.104 0.293014 63.755 0.293014 63.755V29.671C0.293014 29.671 0.293014 20.031 1.32201 15.891C2.34901 11.704 4.30701 8.83101 6.41201 6.68901C8.56601 4.54701 11.405 2.59901 15.712 1.57601C20.068 0.554006 29.466 0.603006 29.466 0.603006H63.632C63.632 0.603006 73.274 0.603006 77.435 1.62501C81.595 2.69601 84.532 4.59501 86.685 6.73801C88.839 8.88001 90.797 11.704 91.776 16.038C92.756 20.371 92.756 29.72 92.756 29.72L92.755 63.804Z" fill="url(#paint0_linear_94_1989)"/>
<path d="M78.267 28.795C80.176 55.039 62.653 67.505 46.941 68.868C32.354 70.133 18.649 61.564 17.474 48.271C16.495 37.316 23.544 32.593 29.074 32.154C34.753 31.668 39.501 35.417 39.941 39.994C40.333 44.376 37.494 46.421 35.487 46.567C33.921 46.713 31.963 45.787 31.767 43.84C31.62 42.136 32.305 41.941 32.109 40.14C31.816 36.926 28.928 36.585 27.362 36.731C25.452 36.877 21.977 39.069 22.418 44.425C22.908 49.829 28.292 54.115 35.34 53.481C42.976 52.799 48.311 47.103 48.703 39.069C48.703 38.63 48.801 38.241 48.996 37.851C49.094 37.705 49.143 37.559 49.29 37.413C49.486 37.121 49.682 36.877 49.926 36.634L50.612 35.952C53.94 32.933 65.982 25.727 77.288 27.967C77.386 27.967 77.484 28.016 77.533 28.064C77.973 28.064 78.218 28.406 78.267 28.795Z" fill="white"/>
</g>
<defs>
<linearGradient id="paint0_linear_94_1989" x1="8986.34" y1="287.1" x2="15.4991" y2="9218.61" gradientUnits="userSpaceOnUse">
<stop stop-color="#11C4D1"/>
<stop offset="1" stop-color="#0062AD"/>
</linearGradient>
<clipPath id="clip0_94_1989">
<rect width="93" height="93" fill="white"/>
</clipPath>
</defs>
</svg>
