<svg width="159" height="184" viewBox="0 0 159 184" fill="none" xmlns="http://www.w3.org/2000/svg">
<path d="M79.4 7.3L83.6 1.8C81.1 -0.1 77.6 -0.1 75.1 1.8L79.4 7.3ZM151.9 28.6L158.8 28.7C158.8 26.8 158.1 25.1 156.8 23.7C155.5 22.4 153.7 21.6 151.9 21.6V28.6ZM79.4 176.7L75.6 182.5C77.9 184 80.9 184 83.3 182.5L79.4 176.7ZM7 28.6V21.7C5.1 21.7 3.40001 22.4 2.10001 23.8C0.800006 25.1 0.100006 26.9 0.100006 28.8L7 28.6ZM75.1 12.8C106.5 37.1 142.4 35.5 151.8 35.5V21.7C142 21.7 110.7 22.9 83.5 1.8L75.1 12.8ZM144.9 28.5C144.4 60.6 143 83.3 140.4 100.1C137.8 116.7 134.2 126.7 129.4 133.7C124.6 141 118.6 145.3 109.7 150.6C100.7 156 89.4 161.8 75.4 171L83.1 182.5C96.4 173.7 107.4 168 116.8 162.4C126.3 156.7 134.6 150.5 140.9 141.4C147.2 132 151.4 119.8 154.1 102.2C156.8 84.8 158.2 61.2 158.7 28.7L144.9 28.5ZM83.2 170.9C69.3 161.6 57.9 155.8 49 150.5C40.1 145.2 34.1 140.9 29.3 133.6C24.6 126.6 20.9 116.7 18.4 100C15.8 83.2 14.5 60.6 13.9 28.4L0 28.7C0.5 61.1 2.00001 84.7 4.60001 102.2C7.30001 119.8 11.4 132 17.7 141.4C24 150.5 32.3 156.7 41.7 162.4C51.1 168 62.1 173.6 75.4 182.5L83.2 170.9ZM7 35.5C16.3 35.5 52.3 37.1 83.6 12.8L75.2 1.8C48 22.9 16.7 21.7 7 21.7V35.5Z" fill="#3375BB"/>
</svg>
